<?xml version="1.0" encoding="UTF-8" standalone="no"?>
<svg
   viewBox="0 0 100 100"
   width="100"
   height="100"
   fill="none"
   version="1.1"
   id="svg14"
   sodipodi:docname="favicon.svg"
   inkscape:version="1.2.2 (b0a84865, 2022-12-01)"
   xmlns:inkscape="http://www.inkscape.org/namespaces/inkscape"
   xmlns:sodipodi="http://sodipodi.sourceforge.net/DTD/sodipodi-0.dtd"
   xmlns="http://www.w3.org/2000/svg"
   xmlns:svg="http://www.w3.org/2000/svg">
  <defs
     id="defs18" />
  <sodipodi:namedview
     id="namedview16"
     pagecolor="#ffffff"
     bordercolor="#000000"
     borderopacity="0.25"
     inkscape:showpageshadow="2"
     inkscape:pageopacity="0.0"
     inkscape:pagecheckerboard="0"
     inkscape:deskcolor="#d1d1d1"
     showgrid="false"
     inkscape:zoom="4.8149397"
     inkscape:cx="-0.83074769"
     inkscape:cy="70.302023"
     inkscape:window-width="1390"
     inkscape:window-height="1205"
     inkscape:window-x="200"
     inkscape:window-y="74"
     inkscape:window-maximized="0"
     inkscape:current-layer="svg14" />
  <!-- Background rounded square -->
  <path
     id="rect2"
     style="fill:#000000;stroke-width:1.24974"
     d="m 25.015507,0.02375463 h 49.994362 c 13.848438,0 24.997181,11.14657137 24.997181,24.99230937 v 49.98462 c 0,13.84574 -11.148743,24.992311 -24.997181,24.992311 H 25.015507 c -13.848438,0 -24.9971805,-11.146571 -24.9971805,-24.992311 v -49.98462 c 0,-13.845738 11.1487425,-24.99230937 24.9971805,-24.99230937 z" />
  <!-- Camera aperture design -->
  <path
     id="circle4"
     style="fill:#ffffff;stroke-width:1.24974"
     d="M 81.259164,50.008374 A 31.246476,31.240388 0 0 1 50.012688,81.248762 31.246476,31.240388 0 0 1 18.766211,50.008374 31.246476,31.240388 0 0 1 50.012688,18.767987 31.246476,31.240388 0 0 1 81.259164,50.008374 Z" />
  <!-- Music note -->
  <g
     aria-label="JD"
     transform="matrix(0.91792322,0,0,1.7014966,-12.480264,-12.4724)"
     id="text232"
     style="font-size:56.2867px;fill:#000000;stroke-width:4.69055">
    <path
       d="m 52.702979,16.731163 h 12.477619 v 21.904542 q 0,6.898419 -1.236769,10.498789 -1.209284,3.60037 -4.919589,6.10139 -3.682822,2.501021 -9.454407,2.501021 -6.101391,0 -9.454407,-1.649025 -3.353016,-1.649024 -5.194427,-4.809654 -1.813927,-3.188114 -2.143732,-7.86035 l 11.90046,-1.621541 q 0.02748,2.665923 0.467224,3.957659 0.439739,1.291736 1.484122,2.088764 0.714577,0.522191 2.033796,0.522191 2.088765,0 3.050696,-1.539089 0.989414,-1.566574 0.989414,-5.249395 z"
       style="font-family:'Arial Black';-inkscape-font-specification:'Arial Black, '"
       id="path309" />
    <path
       d="m 73.645589,16.731163 h 18.496558 q 5.469264,0 8.822283,1.484122 3.3805,1.484122 5.5792,4.25998 2.1987,2.775858 3.18811,6.458679 0.98942,3.682822 0.98942,7.805383 0,6.458679 -1.48413,10.031565 -1.45663,3.545403 -4.06759,5.963972 -2.61096,2.391085 -5.606683,3.188114 -4.095078,1.099349 -7.42061,1.099349 H 73.645589 Z m 12.450135,9.124602 v 22.014477 h 3.050695 q 3.902691,0 5.551716,-0.851996 1.649024,-0.87948 2.583471,-3.023212 0.934448,-2.171215 0.934448,-7.008354 0,-6.403711 -2.088765,-8.767313 -2.088764,-2.363602 -6.925902,-2.363602 z"
       style="font-family:'Arial Black';-inkscape-font-specification:'Arial Black, '"
       id="path311" />
  </g>
</svg>
